:FULLY-SPECIFIED
:FORCE-ALL-JOINTS-BE-3DOF
:DEGREES
130
root 9.08387 15.9278 -19.0687 6.13451 7.87768 6.06281
lfemur 20.4293 1.29536 -26.4739
ltibia 3.65764e-14 0 0
lfoot -13.3151 -2.02063 -0.00993289
ltoes -7.74853 0 0
rfemur -42.3375 8.34268 5.93009
rtibia 27.8973 -0 0
rfoot -20.4401 -11.3536 0.0377243
rtoes -21.113 0 0
lowerback -8.35387 -4.125 -7.11612
upperback -1.19952 -4.92154 1.93355
thorax 4.19884 -2.57245 5.41011
lowerneck -19.8887 -5.51747 -13.2392
upperneck 20.7935 -6.40744 11.1787
head 10.7965 -2.69729 5.28803
lclavicle 2.4254e-14 -1.31198e-14 0
lhumerus -31.7487 -23.6993 98.1508
lradius 35.8269 -0 0
lwrist 6.77241 0 0
lhand -12.1916 -24.1389 -0.0017204
lfingers 7.12502 0 0
lthumb 13.8721 5.37351 -0.0027441
rclavicle 2.4254e-14 -1.31198e-14 0
rhumerus -47.5871 5.85972 -82.5988
rradius 32.2453 -0 0
rwrist -19.0233 0 0
rhand -28.319 -28.0507 -0.150092
rfingers 7.12502 0 0
rthumb -1.69389 -58.0108 -0.145335
131
root 9.05773 15.913 -18.9027 6.22047 8.1337 6.08131
lfemur 20.9299 1.32785 -26.1466
ltibia 2.65046e-14 0 0
lfoot -12.9156 -2.33727 -0.00882918
ltoes -7.72683 0 0
rfemur -42.2341 7.76083 6.33323
rtibia 28.2911 -0 0
rfoot -19.2594 -10.9467 0.0335314
rtoes -21.7397 0 0
lowerback -8.31698 -4.14738 -7.1113
upperback -1.19737 -4.95333 1.90803
thorax 4.18257 -2.58741 5.37804
lowerneck -19.9525 -5.56993 -13.2477
upperneck 20.6831 -6.46989 11.2114
head 10.7789 -2.72004 5.28769
lclavicle 3.34181e-14 -1.40475e-14 0
lhumerus -32.1265 -23.2497 98.3781
lradius 34.8203 -0 0
lwrist 5.87371 0 0
lhand -12.658 -24.0919 -0.00152923
lfingers 7.12502 0 0
lthumb 13.4226 5.45125 -0.00243918
rclavicle 3.34181e-14 -1.40475e-14 0
rhumerus -47.6905 5.61886 -82.5168
rradius 31.9783 -0 0
rwrist -18.9189 0 0
rhand -27.5099 -30.4153 -0.133394
rfingers 7.12502 0 0
rthumb -0.912498 -60.3817 -0.129166
132
root 9.0316 15.8981 -18.7366 6.30656 8.38969 6.10022
lfemur 21.4305 1.35747 -25.819
ltibia 1.64329e-14 0 0
lfoot -12.5162 -2.65389 -0.00551813
ltoes -7.70514 0 0
rfemur -42.1349 7.17826 6.73478
rtibia 28.6849 -0 0
rfoot -18.0788 -10.5399 0.0209546
rtoes -22.3663 0 0
lowerback -8.28009 -4.16978 -7.10649
upperback -1.1952 -4.98513 1.88252
thorax 4.16631 -2.60238 5.34598
lowerneck -20.0164 -5.62239 -13.2562
upperneck 20.5727 -6.53227 11.2441
head 10.7613 -2.74278 5.28734
lclavicle 4.25821e-14 -1.49751e-14 0
lhumerus -32.5012 -22.7987 98.6015
lradius 33.8136 -0 0
lwrist 4.97501 0 0
lhand -13.1243 -24.045 -0.000955755
lfingers 7.12502 0 0
lthumb 12.9731 5.52898 -0.00152447
rclavicle 4.25821e-14 -1.49751e-14 0
rhumerus -47.7942 5.37814 -82.4345
rradius 31.7114 -0 0
rwrist -18.8145 0 0
rhand -26.7022 -32.7795 -0.0833318
rfingers 7.12502 0 0
rthumb -0.132449 -62.752 -0.0806906
133
root 9.00546 15.8832 -18.5706 6.3928 8.64565 6.11952
lfemur 21.9314 1.38423 -25.4912
ltibia 6.36111e-15 0 0
lfoot -12.1168 -2.97048 0
ltoes -7.68344 0 0
rfemur -42.04 6.59503 7.13481
rtibia 29.0787 0 0
rfoot -16.8983 -10.1335 0
rtoes -22.993 0 0
lowerback -8.2432 -4.19217 -7.10169
upperback -1.19302 -5.01692 1.857
thorax 4.15006 -2.61735 5.31392
lowerneck -20.0803 -5.67487 -13.2646
upperneck 20.4623 -6.5946 11.277
head 10.7437 -2.76552 5.28701
lclavicle 5.17461e-14 -1.59028e-14 0
lhumerus -32.8727 -22.3464 98.821
lradius 32.8069 0 0
lwrist 4.07631 0 0
lhand -13.5907 -23.998 0
lfingers 7.12502 0 0
lthumb 12.5237 5.60671 0
rclavicle 5.17461e-14 -1.59028e-14 0
rhumerus -47.8982 5.13757 -82.3518
rradius 31.4444 0 0
rwrist -18.7101 0 0
rhand -25.8973 -35.1427 0
rfingers 7.12502 0 0
rthumb 0.644928 -65.1215 0
134
root 8.97909 15.8804 -18.3978 6.41905 8.69153 5.92819
lfemur 22.402 1.6374 -24.9339
ltibia 9.54166e-15 0 0
lfoot -11.1285 -3.07585 -0.00454653
ltoes -8.67097 0 0
rfemur -42.1334 5.98693 7.86509
rtibia 30.0187 -0 0
rfoot -15.1553 -9.77225 0.0275296
rtoes -22.8424 0 0
lowerback -8.16723 -4.11162 -6.82866
upperback -1.17571 -4.93933 1.85776
thorax 4.09268 -2.57313 5.17625
lowerneck -20.0934 -5.72895 -13.3291
upperneck 20.2852 -6.67765 11.4442
head 10.7035 -2.78783 5.34227
lclavicle 5.04809e-14 -1.20596e-14 0
lhumerus -33.0159 -21.1558 98.5653
lradius 31.7135 -0 0
lwrist 3.48757 0 0
lhand -12.3637 -23.0954 0.0483927
lfingers 7.12502 0 0
lthumb 13.7053 6.41367 0.0416577
rclavicle 5.04809e-14 -1.20596e-14 0
rhumerus -48.0438 5.07806 -82.4392
rradius 31.2808 -0 0
rwrist -18.5881 0 0
rhand -26.0234 -34.3718 -0.00424418
rfingers 7.12502 0 0
rthumb 0.523107 -64.3508 -0.00409844
135
root 8.95272 15.8776 -18.2249 6.44515 8.73749 5.73687
lfemur 22.8752 1.88598 -24.3744
ltibia 1.27222e-14 0 0
lfoot -10.1402 -3.18127 -0.00727499
ltoes -9.65849 0 0
rfemur -42.2345 5.38006 8.5956
rtibia 30.9587 -0 0
rfoot -13.4122 -9.41033 0.0440579
rtoes -22.6918 0 0
lowerback -8.09088 -4.03144 -6.55555
upperback -1.1584 -4.86174 1.85855
thorax 4.0352 -2.52905 5.03854
lowerneck -20.1064 -5.78304 -13.3936
upperneck 20.1079 -6.76018 11.6117
head 10.6632 -2.8101 5.39755
lclavicle 4.92157e-14 -8.21645e-15 0
lhumerus -33.1637 -19.9658 98.3085
lradius 30.6201 -0 0
lwrist 2.89882 0 0
lhand -11.1361 -22.1921 0.077442
lfingers 7.12502 0 0
lthumb 14.8873 7.22131 0.0666627
rclavicle 4.92157e-14 -8.21645e-15 0
rhumerus -48.1893 5.01833 -82.5263
rradius 31.1173 -0 0
rwrist -18.4661 0 0
rhand -26.1496 -33.6009 -0.006791
rfingers 7.12502 0 0
rthumb 0.401241 -63.58 -0.00655782
136
root 8.92636 15.8749 -18.0521 6.4711 8.78354 5.54554
lfemur 23.3508 2.12992 -23.8128
ltibia 1.59028e-14 0 0
lfoot -9.15188 -3.28673 -0.00818457
ltoes -10.646 0 0
rfemur -42.3432 4.77452 9.3265
rtibia 31.8987 -0 0
rfoot -11.6689 -9.04807 0.0495692
rtoes -22.5411 0 0
lowerback -8.01416 -3.95161 -6.28236
upperback -1.14109 -4.78415 1.85936
thorax 3.97761 -2.4851 4.90079
lowerneck -20.1194 -5.83715 -13.4581
upperneck 19.9303 -6.8422 11.7794
head 10.623 -2.83233 5.45285
lclavicle 4.79506e-14 -4.37328e-15 0
lhumerus -33.316 -18.7765 98.0502
lradius 29.5267 -0 0
lwrist 2.31008 0 0
lhand -9.90816 -21.2882 0.0871273
lfingers 7.12502 0 0
lthumb 16.0696 8.0293 0.0749994
rclavicle 4.79506e-14 -4.37328e-15 0
rhumerus -48.3347 4.95838 -82.6134
rradius 30.9538 -0 0
rwrist -18.3441 0 0
rhand -26.2758 -32.83 -0.00764
rfingers 7.12502 0 0
rthumb 0.279354 -62.8092 -0.00737766
137
root 8.89999 15.8721 -17.8793 6.4969 8.82967 5.3542
lfemur 23.8289 2.36918 -23.2492
ltibia 1.90833e-14 0 0
lfoot -8.16357 -3.3922 -0.00727499
ltoes -11.6335 0 0
rfemur -42.4596 4.17042 10.0579
rtibia 32.8388 -0 0
rfoot -9.92574 -8.68581 0.0440579
rtoes -22.3905 0 0
lowerback -7.93706 -3.87216 -6.00909
upperback -1.12378 -4.70657 1.8602
thorax 3.91991 -2.4413 4.76301
lowerneck -20.1323 -5.89127 -13.5226
upperneck 19.7525 -6.9237 11.9475
head 10.5827 -2.85452 5.50816
lclavicle 4.66854e-14 -5.301e-16 0
lhumerus -33.4729 -17.5878 97.7904
lradius 28.4333 -0 0
lwrist 1.72134 0 0
lhand -8.68024 -20.3844 0.077442
lfingers 7.12502 0 0
lthumb 17.2519 8.8373 0.0666627
rclavicle 4.66854e-14 -5.301e-16 0
rhumerus -48.48 4.89821 -82.7002
rradius 30.7902 -0 0
rwrist -18.222 0 0
rhand -26.402 -32.0591 -0.006791
rfingers 7.12502 0 0
rthumb 0.157466 -62.0385 -0.00655782
